<svg y="0px" x="0px" viewBox="4.5600000000000005 2.88 39.12 42.839999999999996" xmlns="http://www.w3.org/2000/svg" style="max-height: 500px" width="39.12" height="42.839999999999996"><defs><style>.cls-1{fill:none;}</style></defs><title>ACcount</title><g data-name="Bouding Box"><rect height="48" width="48" class="cls-1"/></g><g><path d="M24,24A10,10,0,1,0,14,14,10,10,0,0,0,24,24ZM24,7a7,7,0,1,1-7,7A7,7,0,0,1,24,7Z"/><path d="M41,33.67a1.46,1.46,0,0,0-.67-.94,30.69,30.69,0,0,0-32.58,0,1.51,1.51,0,0,0-.47,2.09,19.9,19.9,0,0,0,33.52,0A1.47,1.47,0,0,0,41,33.67ZM24,41a17,17,0,0,1-13.37-6.51,27.71,27.71,0,0,1,26.66,0A16.83,16.83,0,0,1,24,41Z"/></g><text font-family="'Helvetica Neue', Helvetica, Arial-Unicode, Arial, Sans-serif" font-weight="bold" font-size="5px" fill="#000000" y="63" x="0">Created by Division Icons</text><text font-family="'Helvetica Neue', Helvetica, Arial-Unicode, Arial, Sans-serif" font-weight="bold" font-size="5px" fill="#000000" y="68" x="0">from the Noun Project</text></svg>